<?xml version="1.0" encoding="UTF-8"?>
<svg id="b" data-name="Layer 2" xmlns="http://www.w3.org/2000/svg" width="1434" height="841" xmlns:xlink="http://www.w3.org/1999/xlink" viewBox="0 0 1434 841">
  <defs>
    <style>
      .f {
        fill: #fff;
      }

      .g, .h {
        fill: none;
      }

      .i {
        filter: url(#e);
      }

      .j {
        mask: url(#d);
      }

      .h {
        stroke: #fff;
        stroke-miterlimit: 3;
        stroke-width: 3px;
      }
    </style>
    <filter id="e" x="296.807" y="1.674" width="839.341" height="709.822" color-interpolation-filters="sRGB" filterUnits="userSpaceOnUse">
      <feColorMatrix result="cm" values="-1 0 0 0 1 0 -1 0 0 1 0 0 -1 0 1 0 0 0 1 0"/>
      <feFlood flood-color="#fff" result="bg"/>
      <feBlend in="cm" in2="bg"/>
    </filter>
    <mask id="d" data-name="mask" x="296.807" y="1.674" width="839.341" height="709.822" maskUnits="userSpaceOnUse">
      <g class="i">
        <rect class="f" x="330.281" y="317.922" width="772.438" height="264.511"/>
      </g>
    </mask>
  </defs>
  <g id="c" data-name="Layer 4">
    <g>
      <g class="j">
        <path class="f" d="M716.5,1.674c138.38,236.151,280.013,471.804,419.648,708.603-119.683.962-298.635,1.029-419.648,1.219-121.374-.252-299.518-.218-419.693-1.194C436.451,473.499,578.113,237.827,716.5,1.674h0ZM716.5,5.326c-132.797,233.373-262.467,467.346-393.842,700.123,0,0-8.571-14.846-8.571-14.846,112.086-.675,288.979-1.095,402.413-1.099,113.774-.07,289.855.462,402.412,1.125,0,0-8.547,14.806-8.547,14.806C978.976,472.655,849.303,238.704,716.5,5.326h0Z"/>
      </g>
      <g>
        <path class="f" d="M431.079,333.379h39.7c48.792,0,74.951,28.357,74.951,78.773s-26.16,79.919-74.062,79.919h-40.59v-158.692ZM469.278,475.514c37.093,0,55.597-23.247,55.597-63.361s-18.504-62.216-55.597-62.216h-18.005v125.577h18.005Z"/>
        <path class="f" d="M628.137,333.379h24.318l30.419,84.794c3.818,10.844,7.458,22.043,11.277,33.065h.967c3.818-11.022,7.153-22.222,10.972-33.065l30.063-84.794h24.318v158.692h-18.771v-87.378c0-13.818,1.552-32.891,2.569-46.927h-.968l-12.598,36.191-29.888,82.089h-13.382l-30.04-82.089-12.573-36.191h-.967c1.018,14.036,2.569,33.108,2.569,46.927v87.378h-18.287v-158.692Z"/>
        <path class="f" d="M836.062,333.379h20.855l16.65,86.396c3.068,17.053,6.226,34.105,9.293,51.158h.967c3.513-17.053,7.331-34.194,11.149-51.158l22.021-86.396h18.314l22.021,86.396c3.818,16.786,7.637,34.017,11.455,51.158h.968c3.067-17.142,5.919-34.283,8.986-51.158l16.65-86.396h19.482l-32.837,158.692h-24.287l-24.009-95.39c-2.724-12.396-5.27-23.924-7.637-36.141h-.968c-2.456,12.217-5.219,23.745-7.942,36.141l-23.525,95.39h-23.931l-33.677-158.692Z"/>
      </g>
      <g>
        <path class="f" d="M521.14,522.002h12.961c8.879,0,15.021,3.019,15.021,10.693,0,4.314-2.297,8.152-6.38,9.482v.267c5.218,1.029,8.881,4.475,8.881,10.448,0,8.578-6.792,12.773-16.527,12.773h-13.955v-43.664ZM533.162,540.582c7.426,0,10.501-2.738,10.501-7.166,0-5.1-3.496-7.005-10.249-7.005h-6.718v14.171h6.465ZM534.296,561.257c7.467,0,11.867-2.689,11.867-8.574,0-5.38-4.231-7.839-11.867-7.839h-7.6v16.413h7.6Z"/>
        <path class="f" d="M555.575,578.938l1.071-4.359c.641.217,1.632.482,2.465.482,3.649,0,5.954-2.928,7.292-6.942l.735-2.389-12.977-32.402h5.641l6.599,17.902c1.015,2.809,2.101,6.121,3.152,9.111h.266c.917-2.941,1.835-6.254,2.717-9.111l5.765-17.902h5.36l-12.186,35.002c-2.282,6.417-5.623,11.273-12.106,11.273-1.505,0-2.752-.266-3.795-.665Z"/>
        <path class="f" d="M601.172,543.872c0-14.082,8.297-22.668,19.376-22.668,5.301,0,9.453,2.577,12.009,5.385l-3.044,3.618c-2.297-2.451-5.183-4.118-8.867-4.118-8.251,0-13.735,6.759-13.735,17.637,0,10.976,5.239,17.854,13.519,17.854,4.167,0,7.333-1.814,10.121-4.903l3.044,3.485c-3.449,4.005-7.724,6.303-13.396,6.303-10.875,0-19.026-8.412-19.026-22.593Z"/>
        <path class="f" d="M641.187,518.27h5.472v12.964l-.196,6.646c3.019-2.921,6.296-5.352,10.736-5.352,6.814,0,9.874,4.397,9.874,12.647v20.49h-5.472v-19.784c0-6.023-1.821-8.602-6.102-8.602-3.306,0-5.597,1.688-8.84,4.967v23.419h-5.472v-47.396Z"/>
        <path class="f" d="M677.381,533.327h4.521l.462,5.89h.182c2.251-4.104,5.557-6.688,9.195-6.688,1.432,0,2.437.183,3.452.665l-1.022,4.801c-1.113-.35-1.842-.532-3.137-.532-2.731,0-5.995,1.969-8.18,7.438v20.766h-5.472v-32.339Z"/>
        <path class="f" d="M699.465,523.145c0-2.149,1.652-3.535,3.78-3.535s3.78,1.386,3.78,3.535c0,2.064-1.652,3.535-3.78,3.535s-3.78-1.471-3.78-3.535ZM700.467,533.327h5.472v32.339h-5.472v-32.339Z"/>
        <path class="f" d="M713.247,561.976l2.702-3.604c2.808,2.262,5.663,3.831,9.546,3.831,4.245,0,6.354-2.263,6.354-5.023,0-3.327-3.817-4.798-7.396-6.129-4.531-1.656-9.645-3.886-9.645-9.342,0-5.174,4.146-9.18,11.155-9.18,4.025,0,7.548,1.649,10.055,3.634l-2.618,3.507c-2.227-1.646-4.513-2.878-7.374-2.878-4.074,0-5.955,2.172-5.955,4.638,0,3.075,3.517,4.245,7.179,5.61,4.665,1.758,9.861,3.655,9.861,9.812,0,5.244-4.166,9.614-11.798,9.614-4.595,0-9.027-1.947-12.066-4.489Z"/>
        <path class="f" d="M754.655,559.501l3.933-2.803c1.969,3.467,4.434,4.882,7.558,4.882,4.658,0,6.977-2.642,6.977-9.274v-30.304h5.557v30.815c0,7.555-3.479,13.647-12.029,13.647-5.538,0-9.474-2.409-11.994-6.964Z"/>
        <path class="f" d="M787.55,549.538c0-10.791,7.059-17.01,14.985-17.01s14.985,6.219,14.985,17.01c0,10.708-7.058,16.927-14.985,16.927s-14.985-6.219-14.985-16.927ZM811.866,549.538c0-7.41-3.769-12.454-9.331-12.454s-9.33,5.044-9.33,12.454,3.769,12.37,9.33,12.37,9.331-4.959,9.331-12.37Z"/>
        <path class="f" d="M826.014,533.327h4.521l.462,4.664h.182c3.082-3.032,6.408-5.463,10.848-5.463,6.814,0,9.874,4.397,9.874,12.647v20.49h-5.472v-19.784c0-6.023-1.821-8.602-6.102-8.602-3.307,0-5.597,1.688-8.841,4.967v23.419h-5.472v-32.339Z"/>
        <path class="f" d="M860.004,549.538c0-10.524,7.094-17.01,14.538-17.01,8.248,0,12.905,5.924,12.905,15.175,0,1.155-.099,2.311-.256,3.108h-21.777c.392,6.851,4.58,11.293,10.744,11.293,3.104,0,5.652-1.002,8.048-2.585l1.959,3.591c-2.835,1.855-6.28,3.354-10.678,3.354-8.62,0-15.483-6.303-15.483-16.927ZM882.611,546.893c0-6.48-2.915-10.004-7.972-10.004-4.547,0-8.609,3.649-9.274,10.004h17.246Z"/>
        <path class="f" d="M891.82,561.976l2.702-3.604c2.808,2.262,5.662,3.831,9.546,3.831,4.245,0,6.354-2.263,6.354-5.023,0-3.327-3.817-4.798-7.396-6.129-4.531-1.656-9.645-3.886-9.645-9.342,0-5.174,4.146-9.18,11.155-9.18,4.025,0,7.548,1.649,10.055,3.634l-2.618,3.507c-2.227-1.646-4.513-2.878-7.374-2.878-4.074,0-5.955,2.172-5.955,4.638,0,3.075,3.517,4.245,7.179,5.61,4.665,1.758,9.861,3.655,9.861,9.812,0,5.244-4.166,9.614-11.798,9.614-4.595,0-9.027-1.947-12.066-4.489Z"/>
      </g>
      <line class="h" x1="383.224" y1="546.732" x2="501.686" y2="546.732"/>
      <line class="h" x1="931.314" y1="546.732" x2="1049.776" y2="546.732"/>
      <rect class="g" width="1434" height="841"/>
      <g>
        <path class="f" d="M8.472,733.376h23.259c23.985,0,40.46,11.145,40.46,39.007s-16.475,39.733-39.249,39.733H8.472v-78.74ZM30.52,795.399c11.387,0,20.352-4.604,20.352-23.017s-8.964-22.29-20.352-22.29h-1.211v45.307h1.211Z"/>
        <path class="f" d="M82.122,794.914c0-12.599,9.691-19.624,32.95-22.047-.484-4.361-3.149-6.3-8.48-6.3-4.361,0-8.964,1.696-15.263,5.088l-7.269-13.567c8.48-5.088,17.202-7.995,26.651-7.995,15.748,0,25.197,8.479,25.197,28.347v33.677h-16.959l-1.454-5.814h-.484c-4.846,4.36-10.176,7.269-16.717,7.269-11.387,0-18.171-8.723-18.171-18.656ZM115.072,793.461v-8.237c-9.934,1.453-13.083,4.603-13.083,7.995,0,2.786,1.938,4.36,5.572,4.36,3.392,0,5.33-1.695,7.511-4.118Z"/>
        <path class="f" d="M149.472,751.547h16.96l1.454,10.418h.484c4.482-8.238,11.266-11.872,17.202-11.872,3.755,0,5.815.484,7.511,1.211l-3.392,17.929c-2.181-.484-4.119-.969-6.784-.969-4.361,0-9.691,2.665-12.598,10.176v33.677h-20.836v-60.569Z"/>
        <path class="f" d="M200.107,727.803h20.352v44.822h.485l16.717-21.078h22.532l-21.563,25.196,22.774,35.373h-22.532l-12.114-21.562-6.299,7.025v14.537h-20.352v-84.313Z"/>
        <path class="f" d="M294.833,733.376h22.29l11.872,32.223c1.454,4.361,2.665,9.207,4.119,13.81h.485c1.454-4.603,2.665-9.448,4.119-13.81l11.387-32.223h22.29v78.74h-18.898v-23.259c0-7.995,1.696-20.23,2.665-28.104h-.484l-6.542,18.897-9.691,26.046h-11.145l-9.691-26.046-6.299-18.897h-.485c.969,7.874,2.665,20.109,2.665,28.104v23.259h-18.655v-78.74Z"/>
        <path class="f" d="M384.714,794.914c0-12.599,9.691-19.624,32.95-22.047-.484-4.361-3.149-6.3-8.479-6.3-4.361,0-8.964,1.696-15.264,5.088l-7.269-13.567c8.48-5.088,17.202-7.995,26.651-7.995,15.748,0,25.197,8.479,25.197,28.347v33.677h-16.959l-1.454-5.814h-.484c-4.846,4.36-10.176,7.269-16.717,7.269-11.387,0-18.171-8.723-18.171-18.656ZM417.664,793.461v-8.237c-9.934,1.453-13.083,4.603-13.083,7.995,0,2.786,1.938,4.36,5.572,4.36,3.392,0,5.33-1.695,7.511-4.118Z"/>
        <path class="f" d="M452.309,788.857v-21.078h-7.996v-15.506l9.207-.727,2.423-15.749h17.202v15.749h13.81v16.232h-13.81v20.715c0,6.662,3.392,8.843,7.268,8.843,1.938,0,3.876-.484,5.33-.969l3.15,15.021c-3.15.969-7.632,2.181-14.294,2.181-15.748,0-22.29-9.934-22.29-24.713Z"/>
        <path class="f" d="M498.34,788.857v-21.078h-7.995v-15.506l9.207-.727,2.423-15.749h17.202v15.749h13.81v16.232h-13.81v20.715c0,6.662,3.392,8.843,7.268,8.843,1.938,0,3.877-.484,5.33-.969l3.149,15.021c-3.149.969-7.632,2.181-14.294,2.181-15.748,0-22.29-9.934-22.29-24.713Z"/>
        <path class="f" d="M538.557,781.831c0-19.624,14.295-31.738,29.074-31.738,17.929,0,26.408,13.083,26.408,29.315,0,3.635-.484,7.269-.848,8.723h-34.525c1.938,7.269,7.269,9.69,14.053,9.69,4.118,0,7.995-1.211,12.355-3.634l6.784,12.356c-6.541,4.604-15.264,7.026-22.047,7.026-17.687,0-31.255-11.63-31.255-31.739ZM576.353,774.562c0-4.603-1.938-8.722-8.237-8.722-4.604,0-8.479,2.665-9.691,8.722h17.929Z"/>
        <path class="f" d="M605.423,751.547h16.959l1.454,10.418h.484c4.482-8.238,11.266-11.872,17.202-11.872,3.755,0,5.814.484,7.511,1.211l-3.393,17.929c-2.181-.484-4.118-.969-6.783-.969-4.361,0-9.691,2.665-12.599,10.176v33.677h-20.836v-60.569Z"/>
        <path class="f" d="M674.469,733.376h21.321l4.36,34.403c.849,8.237,1.817,16.475,2.665,24.712h.485c1.453-8.237,2.907-16.596,4.36-24.712l7.511-34.403h17.444l7.511,34.403c1.453,7.874,2.907,16.354,4.361,24.712h.484c.848-8.358,1.816-16.717,2.665-24.712l4.36-34.403h19.867l-13.083,78.74h-26.408l-6.057-31.254c-1.212-6.057-2.181-12.599-2.908-18.413h-.484c-.848,5.814-1.695,12.356-2.907,18.413l-5.814,31.254h-25.924l-13.811-78.74Z"/>
        <path class="f" d="M776.947,781.831c0-20.108,14.537-31.738,30.043-31.738s30.043,11.63,30.043,31.738-14.537,31.739-30.043,31.739-30.043-11.63-30.043-31.739ZM815.713,781.831c0-9.206-2.423-15.021-8.723-15.021s-8.722,5.815-8.722,15.021,2.423,15.021,8.722,15.021,8.723-5.814,8.723-15.021Z"/>
        <path class="f" d="M844.783,781.831c0-20.108,14.537-31.738,30.043-31.738s30.043,11.63,30.043,31.738-14.537,31.739-30.043,31.739-30.043-11.63-30.043-31.739ZM883.549,781.831c0-9.206-2.423-15.021-8.723-15.021s-8.722,5.815-8.722,15.021,2.423,15.021,8.722,15.021,8.723-5.814,8.723-15.021Z"/>
        <path class="f" d="M913.104,781.831c0-19.866,12.355-31.738,24.712-31.738,6.542,0,10.418,2.423,14.053,6.057l-.728-8.722v-19.625h20.836v84.313h-16.959l-1.454-5.572h-.484c-4.118,4.118-9.934,7.026-15.264,7.026-15.021,0-24.712-12.114-24.712-31.739ZM951.141,792.249v-22.289c-2.423-2.181-5.572-2.907-8.237-2.907-4.36,0-8.479,3.876-8.479,14.536,0,10.902,3.392,15.021,8.964,15.021,3.15,0,5.573-.969,7.753-4.361Z"/>
        <path class="f" d="M981.906,751.547h20.594l4.604,25.438c.969,6.058,1.453,12.114,2.423,18.414h.484c.969-6.3,1.938-12.599,3.392-18.414l5.572-25.438h17.687l5.815,25.438c1.453,6.058,2.422,12.114,3.634,18.414h.484c.97-6.3,1.454-12.356,2.423-18.414l4.604-25.438h19.14l-13.81,60.569h-24.228l-4.361-21.078c-.97-5.572-1.938-11.145-2.907-17.808h-.484c-.97,6.663-1.696,12.235-2.665,17.808l-4.119,21.078h-23.743l-14.537-60.569Z"/>
        <path class="f" d="M1078.33,781.831c0-20.108,14.536-31.738,30.042-31.738s30.043,11.63,30.043,31.738-14.537,31.739-30.043,31.739-30.042-11.63-30.042-31.739ZM1117.094,781.831c0-9.206-2.422-15.021-8.722-15.021s-8.722,5.815-8.722,15.021,2.423,15.021,8.722,15.021,8.722-5.814,8.722-15.021Z"/>
        <path class="f" d="M1149.314,751.547h16.959l1.454,10.418h.484c4.482-8.238,11.266-11.872,17.202-11.872,3.755,0,5.814.484,7.511,1.211l-3.393,17.929c-2.181-.484-4.118-.969-6.783-.969-4.361,0-9.691,2.665-12.599,10.176v33.677h-20.836v-60.569Z"/>
        <path class="f" d="M1199.949,727.803h20.352v44.822h.484l16.717-21.078h22.532l-21.562,25.196,22.773,35.373h-22.531l-12.114-21.562-6.299,7.025v14.537h-20.352v-84.313Z"/>
        <path class="f" d="M1267.541,733.618c0-6.058,4.846-10.418,11.63-10.418s11.629,4.36,11.629,10.418-4.846,10.418-11.629,10.418-11.63-4.361-11.63-10.418ZM1268.753,751.547h20.836v60.569h-20.836v-60.569Z"/>
        <path class="f" d="M1303.64,751.547h16.959l1.454,7.268h.484c4.846-4.603,10.902-8.722,19.14-8.722,13.326,0,18.898,9.691,18.898,24.713v37.311h-20.836v-34.646c0-7.753-1.938-9.691-6.058-9.691-3.876,0-6.057,1.695-9.206,4.604v39.733h-20.836v-60.569Z"/>
        <path class="f" d="M1370.745,822.05c0-4.967,2.908-8.723,8.48-11.63v-.484c-3.15-2.181-5.572-5.33-5.572-10.418,0-4.118,2.665-8.479,6.783-11.387v-.484c-4.361-2.908-8.237-8.48-8.237-15.506,0-15.021,12.599-22.048,25.924-22.048,3.392,0,6.784.484,9.691,1.454h22.531v15.021h-8.722c.484,1.454.969,3.877.969,6.3,0,14.294-10.902,20.109-24.47,20.109-1.938,0-4.119-.242-6.784-.849-1.211,1.091-1.453,1.817-1.453,3.514,0,2.665,2.423,3.634,8.479,3.634h9.086c15.142,0,23.864,4.604,23.864,15.748,0,13.083-13.567,22.048-35.131,22.048-13.81,0-25.439-4.119-25.439-15.021ZM1411.448,818.658c0-3.15-2.907-3.635-8.116-3.635h-4.725c-4.846,0-7.026-.242-8.722-.727-1.454,1.453-2.181,2.665-2.181,4.361,0,3.876,4.846,5.572,11.872,5.572,6.783,0,11.871-2.181,11.871-5.572ZM1404.665,772.141c0-5.573-2.665-8.238-6.542-8.238s-6.542,2.665-6.542,8.238c0,5.814,2.665,8.479,6.542,8.479s6.542-2.665,6.542-8.479Z"/>
      </g>
    </g>
  </g>
</svg>